<?xml version="1.0" encoding="utf-8"?>
<!-- Generator: Adobe Illustrator 28.1.0, SVG Export Plug-In . SVG Version: 6.00 Build 0)  -->
<svg version="1.1" id="Capa_1" xmlns="http://www.w3.org/2000/svg" xmlns:xlink="http://www.w3.org/1999/xlink" x="0px" y="0px"
	 viewBox="0 0 31.9 32" style="enable-background:new 0 0 31.9 32;" xml:space="preserve">
<style type="text/css">
	.st0{fill:none;stroke:#D59E43;stroke-miterlimit:10;}
</style>
<path class="st0" d="M30.2,1.9v25.2c-0.2,0-0.3,0-0.5,0.1L25,5.2l-0.3,0.1l4.7,21.9c-0.1,0-0.3,0.1-0.4,0.1L20.1,6.8l-0.3,0.1
	l8.9,20.6c-0.1,0.1-0.2,0.1-0.3,0.2L16,9l-0.2,0.2l12.4,18.7c-0.1,0.1-0.2,0.2-0.4,0.3L12,12.3l-0.2,0.2l15.8,15.8
	c-0.1,0.1-0.2,0.2-0.3,0.4L8.6,16.4l-0.2,0.2L27.2,29c-0.1,0.1-0.1,0.3-0.2,0.4L6.3,20.8l-0.1,0.3l20.7,8.5c0,0.1-0.1,0.2-0.1,0.4
	L4.9,25.3l-0.1,0.3l21.9,4.7c0,0.1,0,0.2,0,0.2H1.5v0.6h29.2V1.9H30.2z M27.3,30.5c0.1-1.5,1.4-2.8,2.9-2.9v2.9H27.3z"/>
</svg>
